<?xml version="1.0" encoding="utf-8"?>
<!-- Generator: Adobe Illustrator 18.1.1, SVG Export Plug-In . SVG Version: 6.00 Build 0)  -->
<!DOCTYPE svg PUBLIC "-//W3C//DTD SVG 1.1//EN" "http://www.w3.org/Graphics/SVG/1.1/DTD/svg11.dtd">
<svg version="1.1" id="Layer_1" xmlns="http://www.w3.org/2000/svg" xmlns:xlink="http://www.w3.org/1999/xlink" x="0px" y="0px"
	 viewBox="0 0 32 32" enable-background="new 0 0 32 32" xml:space="preserve">
<path fill="#FFFFFF" d="M16,3.2C8.8,3.2,2.9,9.1,2.9,16.3c0,5.8,3.8,10.7,8.9,12.4c0.7,0.1,0.9-0.3,0.9-0.6c0-0.3,0-1.1,0-2.2
	c-3.6,0.8-4.4-1.8-4.4-1.8c-0.6-1.5-1.5-1.9-1.5-1.9C5.7,21.4,7,21.4,7,21.4c1.3,0.1,2,1.3,2,1.3c1.2,2,3.1,1.4,3.8,1.1
	c0.1-0.8,0.5-1.4,0.8-1.8c-2.9-0.3-6-1.4-6-6.5c0-1.4,0.5-2.6,1.3-3.5c-0.1-0.3-0.6-1.7,0.1-3.5c0,0,1.1-0.4,3.6,1.3
	c1-0.3,2.2-0.4,3.3-0.4c1.1,0,2.2,0.1,3.3,0.4c2.5-1.7,3.6-1.3,3.6-1.3c0.7,1.8,0.3,3.1,0.1,3.5c0.8,0.9,1.3,2.1,1.3,3.5
	c0,5-3.1,6.1-6,6.5c0.5,0.4,0.9,1.2,0.9,2.4c0,1.8,0,3.2,0,3.6c0,0.4,0.2,0.8,0.9,0.6c5.2-1.7,8.9-6.6,8.9-12.4
	C29.1,9.1,23.2,3.2,16,3.2z"/>
</svg>
